%TF.GenerationSoftware,KiCad,Pcbnew,9.0.4*%
%TF.CreationDate,2026-03-17T13:02:17-05:00*%
%TF.ProjectId,periph_board,70657269-7068-45f6-926f-6172642e6b69,rev?*%
%TF.SameCoordinates,Original*%
%TF.FileFunction,Soldermask,Bot*%
%TF.FilePolarity,Negative*%
%FSLAX46Y46*%
G04 Gerber Fmt 4.6, Leading zero omitted, Abs format (unit mm)*
G04 Created by KiCad (PCBNEW 9.0.4) date 2026-03-17 13:02:17*
%MOMM*%
%LPD*%
G01*
G04 APERTURE LIST*
G04 Aperture macros list*
%AMRoundRect*
0 Rectangle with rounded corners*
0 $1 Rounding radius*
0 $2 $3 $4 $5 $6 $7 $8 $9 X,Y pos of 4 corners*
0 Add a 4 corners polygon primitive as box body*
4,1,4,$2,$3,$4,$5,$6,$7,$8,$9,$2,$3,0*
0 Add four circle primitives for the rounded corners*
1,1,$1+$1,$2,$3*
1,1,$1+$1,$4,$5*
1,1,$1+$1,$6,$7*
1,1,$1+$1,$8,$9*
0 Add four rect primitives between the rounded corners*
20,1,$1+$1,$2,$3,$4,$5,0*
20,1,$1+$1,$4,$5,$6,$7,0*
20,1,$1+$1,$6,$7,$8,$9,0*
20,1,$1+$1,$8,$9,$2,$3,0*%
G04 Aperture macros list end*
%ADD10C,3.200000*%
%ADD11C,2.000000*%
%ADD12RoundRect,0.250000X-0.350000X-0.450000X0.350000X-0.450000X0.350000X0.450000X-0.350000X0.450000X0*%
%ADD13R,1.700000X1.700000*%
%ADD14C,1.700000*%
%ADD15R,1.935000X1.935000*%
%ADD16C,1.935000*%
G04 APERTURE END LIST*
D10*
%TO.C,H101*%
X226247500Y-74620000D03*
%TD*%
D11*
%TO.C,TP109*%
X194044500Y-93320000D03*
%TD*%
%TO.C,TP101*%
X99544500Y-93320000D03*
%TD*%
%TO.C,TP112*%
X229250000Y-89140000D03*
%TD*%
%TO.C,TP108*%
X180544500Y-93320000D03*
%TD*%
%TO.C,TP107*%
X167044500Y-93320000D03*
%TD*%
%TO.C,TP111*%
X221044500Y-93320000D03*
%TD*%
D10*
%TO.C,H100*%
X85250000Y-74620000D03*
%TD*%
D11*
%TO.C,TP100*%
X88210000Y-93360000D03*
%TD*%
%TO.C,TP106*%
X153544500Y-93320000D03*
%TD*%
%TO.C,TP102*%
X162070000Y-82320000D03*
%TD*%
%TO.C,TP104*%
X126544500Y-93310000D03*
%TD*%
%TO.C,TP103*%
X113044500Y-93320000D03*
%TD*%
%TO.C,TP110*%
X207544500Y-93320000D03*
%TD*%
%TO.C,TP105*%
X140044500Y-93320000D03*
%TD*%
D12*
%TO.C,R102*%
X144070000Y-82870000D03*
X146070000Y-82870000D03*
%TD*%
%TO.C,R104*%
X139600000Y-87310000D03*
X141600000Y-87310000D03*
%TD*%
%TO.C,R100*%
X139600000Y-82880000D03*
X141600000Y-82880000D03*
%TD*%
%TO.C,R106*%
X144070000Y-87300000D03*
X146070000Y-87300000D03*
%TD*%
%TO.C,R101*%
X139600000Y-84960000D03*
X141600000Y-84960000D03*
%TD*%
%TO.C,R103*%
X144070000Y-84950000D03*
X146070000Y-84950000D03*
%TD*%
D13*
%TO.C,J100*%
X78200000Y-74980025D03*
D14*
X78200000Y-77520025D03*
X78200000Y-80060025D03*
X78200000Y-82600025D03*
X78200000Y-85140025D03*
X78200000Y-87680025D03*
X78200000Y-90220025D03*
X78200000Y-92760025D03*
%TD*%
D12*
%TO.C,R107*%
X144070000Y-89580000D03*
X146070000Y-89580000D03*
%TD*%
D13*
%TO.C,J101*%
X234175000Y-74980025D03*
D14*
X234175000Y-77520025D03*
X234175000Y-80060025D03*
X234175000Y-82600025D03*
X234175000Y-85140025D03*
X234175000Y-87680025D03*
X234175000Y-90220025D03*
X234175000Y-92760025D03*
%TD*%
D15*
%TO.C,IC101*%
X171210000Y-77850000D03*
D16*
X168670000Y-77850000D03*
X166130000Y-77850000D03*
%TD*%
D12*
%TO.C,R105*%
X139600000Y-89590000D03*
X141600000Y-89590000D03*
%TD*%
M02*
