%TF.GenerationSoftware,KiCad,Pcbnew,9.0.4*%
%TF.CreationDate,2026-03-17T13:02:17-05:00*%
%TF.ProjectId,periph_board,70657269-7068-45f6-926f-6172642e6b69,rev?*%
%TF.SameCoordinates,Original*%
%TF.FileFunction,Soldermask,Top*%
%TF.FilePolarity,Negative*%
%FSLAX46Y46*%
G04 Gerber Fmt 4.6, Leading zero omitted, Abs format (unit mm)*
G04 Created by KiCad (PCBNEW 9.0.4) date 2026-03-17 13:02:17*
%MOMM*%
%LPD*%
G01*
G04 APERTURE LIST*
G04 Aperture macros list*
%AMRoundRect*
0 Rectangle with rounded corners*
0 $1 Rounding radius*
0 $2 $3 $4 $5 $6 $7 $8 $9 X,Y pos of 4 corners*
0 Add a 4 corners polygon primitive as box body*
4,1,4,$2,$3,$4,$5,$6,$7,$8,$9,$2,$3,0*
0 Add four circle primitives for the rounded corners*
1,1,$1+$1,$2,$3*
1,1,$1+$1,$4,$5*
1,1,$1+$1,$6,$7*
1,1,$1+$1,$8,$9*
0 Add four rect primitives between the rounded corners*
20,1,$1+$1,$2,$3,$4,$5,0*
20,1,$1+$1,$4,$5,$6,$7,0*
20,1,$1+$1,$6,$7,$8,$9,0*
20,1,$1+$1,$8,$9,$2,$3,0*%
G04 Aperture macros list end*
%ADD10RoundRect,0.250000X-0.475000X0.337500X-0.475000X-0.337500X0.475000X-0.337500X0.475000X0.337500X0*%
%ADD11R,0.600000X1.200000*%
%ADD12C,2.000000*%
%ADD13RoundRect,0.250000X0.475000X-0.337500X0.475000X0.337500X-0.475000X0.337500X-0.475000X-0.337500X0*%
%ADD14R,1.200000X0.600000*%
%ADD15R,0.450000X1.800000*%
%ADD16R,1.700000X1.700000*%
%ADD17C,1.700000*%
%ADD18R,1.935000X1.935000*%
%ADD19C,1.935000*%
G04 APERTURE END LIST*
D10*
%TO.C,C208*%
X187414545Y-92162500D03*
X187414545Y-94237500D03*
%TD*%
D11*
%TO.C,U202*%
X108400000Y-94670000D03*
X110300000Y-94670000D03*
X109350000Y-92170000D03*
%TD*%
D10*
%TO.C,C209*%
X200913864Y-92162500D03*
X200913864Y-94237500D03*
%TD*%
D11*
%TO.C,U206*%
X162400000Y-94670000D03*
X164300000Y-94670000D03*
X163350000Y-92170000D03*
%TD*%
D12*
%TO.C,TP109*%
X194044500Y-93320000D03*
%TD*%
D13*
%TO.C,C103*%
X157390000Y-84387500D03*
X157390000Y-82312500D03*
%TD*%
D14*
%TO.C,IC102*%
X159260000Y-76850000D03*
X159260000Y-77800000D03*
X159260000Y-78750000D03*
X161760000Y-78750000D03*
X161760000Y-76850000D03*
%TD*%
D11*
%TO.C,U203*%
X121900000Y-94670000D03*
X123800000Y-94670000D03*
X122850000Y-92170000D03*
%TD*%
%TO.C,U208*%
X189400000Y-94670000D03*
X191300000Y-94670000D03*
X190350000Y-92170000D03*
%TD*%
%TO.C,U204*%
X135400000Y-94670000D03*
X137300000Y-94670000D03*
X136350000Y-92170000D03*
%TD*%
D12*
%TO.C,TP101*%
X99544500Y-93320000D03*
%TD*%
D15*
%TO.C,IC100*%
X155359500Y-77009500D03*
X154709500Y-77009500D03*
X154059500Y-77009500D03*
X153409500Y-77009500D03*
X152759500Y-77009500D03*
X152109500Y-77009500D03*
X151459500Y-77009500D03*
X150809500Y-77009500D03*
X150159500Y-77009500D03*
X149509500Y-77009500D03*
X148859500Y-77009500D03*
X148209500Y-77009500D03*
X148209500Y-84109500D03*
X148859500Y-84109500D03*
X149509500Y-84109500D03*
X150159500Y-84109500D03*
X150809500Y-84109500D03*
X151459500Y-84109500D03*
X152109500Y-84109500D03*
X152759500Y-84109500D03*
X153409500Y-84109500D03*
X154059500Y-84109500D03*
X154709500Y-84109500D03*
X155359500Y-84109500D03*
%TD*%
D10*
%TO.C,C203*%
X119917955Y-92162500D03*
X119917955Y-94237500D03*
%TD*%
D11*
%TO.C,U200*%
X81400000Y-94670000D03*
X83300000Y-94670000D03*
X82350000Y-92170000D03*
%TD*%
D12*
%TO.C,TP112*%
X229250000Y-89140000D03*
%TD*%
%TO.C,TP108*%
X180544500Y-93320000D03*
%TD*%
D11*
%TO.C,U210*%
X216400000Y-94670000D03*
X218300000Y-94670000D03*
X217350000Y-92170000D03*
%TD*%
D10*
%TO.C,C206*%
X160415909Y-92162500D03*
X160415909Y-94237500D03*
%TD*%
D11*
%TO.C,U209*%
X202900000Y-94670000D03*
X204800000Y-94670000D03*
X203850000Y-92170000D03*
%TD*%
D12*
%TO.C,TP107*%
X167044500Y-93320000D03*
%TD*%
D11*
%TO.C,U205*%
X148900000Y-94670000D03*
X150800000Y-94670000D03*
X149850000Y-92170000D03*
%TD*%
D10*
%TO.C,C200*%
X85300000Y-92162500D03*
X85300000Y-94237500D03*
%TD*%
%TO.C,C202*%
X106418636Y-92162500D03*
X106418636Y-94237500D03*
%TD*%
%TO.C,C204*%
X133417273Y-92162500D03*
X133417273Y-94237500D03*
%TD*%
%TO.C,C207*%
X173915227Y-92162500D03*
X173915227Y-94237500D03*
%TD*%
D12*
%TO.C,TP111*%
X221044500Y-93320000D03*
%TD*%
D13*
%TO.C,C100*%
X173700000Y-78757500D03*
X173700000Y-76682500D03*
%TD*%
D10*
%TO.C,C210*%
X214413182Y-92162500D03*
X214413182Y-94237500D03*
%TD*%
%TO.C,C211*%
X227912500Y-92162500D03*
X227912500Y-94237500D03*
%TD*%
%TO.C,C205*%
X146916591Y-92162500D03*
X146916591Y-94237500D03*
%TD*%
D12*
%TO.C,TP100*%
X88210000Y-93360000D03*
%TD*%
D13*
%TO.C,C102*%
X157390000Y-78757500D03*
X157390000Y-76682500D03*
%TD*%
D12*
%TO.C,TP106*%
X153544500Y-93320000D03*
%TD*%
%TO.C,TP102*%
X162070000Y-82320000D03*
%TD*%
%TO.C,TP104*%
X126544500Y-93310000D03*
%TD*%
%TO.C,TP103*%
X113044500Y-93320000D03*
%TD*%
%TO.C,TP110*%
X207544500Y-93320000D03*
%TD*%
D11*
%TO.C,U201*%
X94900000Y-94670000D03*
X96800000Y-94670000D03*
X95850000Y-92170000D03*
%TD*%
D12*
%TO.C,TP105*%
X140044500Y-93320000D03*
%TD*%
D11*
%TO.C,U207*%
X175900000Y-94670000D03*
X177800000Y-94670000D03*
X176850000Y-92170000D03*
%TD*%
D10*
%TO.C,C101*%
X163630000Y-76682500D03*
X163630000Y-78757500D03*
%TD*%
D11*
%TO.C,U211*%
X229900000Y-94670000D03*
X231800000Y-94670000D03*
X230850000Y-92170000D03*
%TD*%
D10*
%TO.C,C201*%
X92919318Y-92162500D03*
X92919318Y-94237500D03*
%TD*%
D16*
%TO.C,J100*%
X78200000Y-74980025D03*
D17*
X78200000Y-77520025D03*
X78200000Y-80060025D03*
X78200000Y-82600025D03*
X78200000Y-85140025D03*
X78200000Y-87680025D03*
X78200000Y-90220025D03*
X78200000Y-92760025D03*
%TD*%
D16*
%TO.C,J101*%
X234175000Y-74980025D03*
D17*
X234175000Y-77520025D03*
X234175000Y-80060025D03*
X234175000Y-82600025D03*
X234175000Y-85140025D03*
X234175000Y-87680025D03*
X234175000Y-90220025D03*
X234175000Y-92760025D03*
%TD*%
D18*
%TO.C,IC101*%
X171210000Y-77850000D03*
D19*
X168670000Y-77850000D03*
X166130000Y-77850000D03*
%TD*%
M02*
