M48
; DRILL file {KiCad 9.0.4} date 2026-03-17T13:02:17-0500
; FORMAT={-:-/ absolute / inch / decimal}
; #@! TF.CreationDate,2026-03-17T13:02:17-05:00
; #@! TF.GenerationSoftware,Kicad,Pcbnew,9.0.4
; #@! TF.FileFunction,Plated,1,2,PTH
FMAT,2
INCH
; #@! TA.AperFunction,Plated,PTH,ViaDrill
T1C0.0118
; #@! TA.AperFunction,Plated,PTH,ComponentDrill
T2C0.0394
; #@! TA.AperFunction,Plated,PTH,ComponentDrill
T3C0.0508
%
G90
G05
T1
X3.1361Y-3.7536
X3.2126Y-3.6295
X3.215Y-3.7823
X3.2378Y-3.7311
X3.3268Y-3.7591
X3.4311Y-3.5906
X3.7264Y-2.9972
X3.7264Y-3.6413
X3.7551Y-3.0791
X3.7657Y-3.4405
X3.7709Y-3.7272
X3.8528Y-3.1154
X3.8697Y-2.7811
X3.8984Y-3.5709
X4.0343Y-3.024
X4.1295Y-3.1201
X4.1315Y-3.3469
X4.1366Y-3.7476
X4.2614Y-3.6346
X4.2732Y-3.1579
X4.2984Y-3.7276
X4.3173Y-3.4236
X4.3575Y-3.0248
X4.3665Y-2.7803
X4.4433Y-3.5764
X4.5358Y-3.0256
X4.5543Y-3.4122
X4.615Y-3.6161
X4.6193Y-3.1811
X4.6752Y-3.7559
X4.7654Y-3.0228
X4.7909Y-3.6343
X4.8173Y-3.4472
X4.8283Y-3.726
X4.924Y-3.1807
X5.0169Y-3.0264
X5.0327Y-3.5165
X5.0402Y-2.7811
X5.0579Y-3.7264
X5.1055Y-3.198
X5.1831Y-3.024
X5.2063Y-3.7583
X5.2748Y-3.7764
X5.2988Y-3.2197
X5.3268Y-3.6441
X5.363Y-3.7272
X5.4098Y-3.0228
X5.498Y-3.5858
X5.5512Y-2.7807
X5.6146Y-3.0264
X5.6224Y-3.2295
X5.6236Y-3.3449
X5.6236Y-3.5272
X5.6248Y-3.437
X5.6756Y-3.7925
X5.739Y-3.7575
X5.7902Y-2.9772
X5.8023Y-3.0315
X5.8449Y-3.626
X5.8953Y-3.3783
X5.8965Y-3.728
X5.9008Y-3.6886
X5.9594Y-3.4476
X5.9827Y-3.2224
X5.9866Y-3.3858
X6.0134Y-2.9657
X6.0397Y-3.0878
X6.0449Y-2.7819
X6.0653Y-3.1149
X6.1019Y-3.5216
X6.1528Y-3.1008
X6.2594Y-3.3228
X6.2705Y-3.7559
X6.2736Y-3.2091
X6.276Y-3.2717
X6.3087Y-3.1949
X6.3217Y-2.8579
X6.3236Y-3.0634
X6.3685Y-2.8996
X6.3697Y-3.0488
X6.3787Y-3.5665
X6.3823Y-3.6492
X6.4311Y-3.7287
X6.4327Y-2.7843
X6.4854Y-3.5366
X6.5Y-3.2811
X6.7441Y-3.2563
X6.774Y-3.5398
X6.7783Y-2.7831
X6.8063Y-3.7555
X6.8295Y-2.8205
X6.8394Y-2.9846
X6.852Y-3.7724
X6.8957Y-2.7811
X6.9138Y-3.622
X6.9587Y-3.7276
X7.0016Y-3.5216
X7.0016Y-3.3366
X7.0236Y-3.2728
X7.0661Y-3.5362
X7.1878Y-2.7815
X7.1965Y-3.0807
X7.3315Y-3.7594
X7.3673Y-3.5307
X7.3878Y-3.7709
X7.4354Y-3.3008
X7.4461Y-3.0787
X7.4484Y-3.6402
X7.4567Y-3.3677
X7.4606Y-2.7799
X7.4909Y-3.7264
X7.5331Y-3.5216
X7.598Y-3.5394
X7.6787Y-3.0882
X7.752Y-3.724
X7.7642Y-2.7799
X7.8677Y-3.7492
X7.8894Y-3.252
X7.9122Y-3.7717
X7.9362Y-3.3937
X7.978Y-3.5492
X7.9799Y-3.6386
X8.0236Y-3.7276
X8.0645Y-3.5216
X8.0673Y-3.0543
X8.1098Y-2.7799
X8.122Y-3.3909
X8.152Y-3.5417
X8.2461Y-3.1961
X8.2583Y-3.7295
X8.3496Y-3.0535
X8.3976Y-3.761
X8.4571Y-3.7713
X8.4799Y-3.265
X8.4937Y-3.4193
X8.5039Y-3.5346
X8.5106Y-3.639
X8.5335Y-2.9346
X8.5429Y-2.7799
X8.552Y-3.7287
X8.596Y-3.5216
X8.6224Y-3.3878
X8.6346Y-2.9008
X8.6598Y-3.5461
X8.7591Y-2.8606
X8.8047Y-3.1992
X8.8382Y-2.7815
X8.8559Y-3.6039
X8.8862Y-3.1024
X8.8921Y-3.4543
X8.8929Y-3.5134
X8.9283Y-3.7417
X8.9563Y-3.7827
X8.974Y-3.4449
X8.9772Y-3.5803
X9.0756Y-2.8697
X9.1213Y-3.439
X9.135Y-3.5469
X9.1378Y-3.0063
X9.1402Y-3.1961
X9.1406Y-3.4024
X9.1563Y-3.0988
X9.1717Y-2.8102
T2
X3.0787Y-2.952
X3.0787Y-3.052
X3.0787Y-3.152
X3.0787Y-3.252
X3.0787Y-3.352
X3.0787Y-3.452
X3.0787Y-3.552
X3.0787Y-3.652
X3.4728Y-3.6756
X3.9191Y-3.674
X4.4506Y-3.674
X4.9821Y-3.6736
X5.5136Y-3.674
X6.0451Y-3.674
X6.3807Y-3.2409
X6.5766Y-3.674
X7.1081Y-3.674
X7.6395Y-3.674
X8.171Y-3.674
X8.7025Y-3.674
X9.0256Y-3.5094
X9.2195Y-2.952
X9.2195Y-3.052
X9.2195Y-3.152
X9.2195Y-3.252
X9.2195Y-3.352
X9.2195Y-3.452
X9.2195Y-3.552
X9.2195Y-3.652
T3
X6.5406Y-3.065
X6.6406Y-3.065
X6.7406Y-3.065
M30
